<svg width="35" height="16" viewBox="0 0 35 16" fill="none" xmlns="http://www.w3.org/2000/svg">
<g clip-path="url(#clip0_143_1544)">
<path d="M6.12262 2.13191C6.11659 2.11104 6.1101 2.08966 6.10349 2.06788C6.08812 2.0172 6.07209 1.96438 6.05967 1.91088C5.96829 1.52233 6.20431 1.24812 6.60267 1.28151C6.98745 1.31398 7.29613 1.49165 7.55333 1.77532C7.60013 1.8269 7.68624 1.87101 7.7545 1.87112C8.53001 1.87177 9.30315 1.84041 10.0655 1.67812C10.5738 1.57007 11.0548 1.3845 11.521 1.16021C12.136 0.864323 12.7826 0.796744 13.456 0.846975C14.4062 0.917296 15.2512 1.28438 16.0879 1.70304C16.6027 1.96078 17.1319 2.19763 17.6725 2.39435C18.2052 2.58795 18.7714 2.62415 19.3396 2.60314C19.5791 2.59416 19.8187 2.58437 20.0582 2.57459L20.0583 2.57458C20.8319 2.54297 21.6056 2.51135 22.3794 2.50682C23.6292 2.49969 24.8736 2.57737 26.0959 2.88293C27.1334 3.14248 28.0978 3.55046 28.9465 4.20939C29.6746 4.7744 30.2385 5.47468 30.6452 6.30143C30.6867 6.38571 30.7257 6.47125 30.7647 6.55682L30.7648 6.5569L30.7648 6.55704C30.7979 6.62954 30.831 6.70205 30.8656 6.77384C30.9531 6.95402 30.9811 7.14006 30.9263 7.33454C30.8612 7.56626 30.8776 7.76407 31.0422 7.97171C31.737 8.84543 32.2977 9.8077 32.8304 10.7858C33.309 11.6648 33.7661 12.5546 34.0498 13.5206C34.0511 13.5251 34.0529 13.5296 34.0546 13.5341C34.2047 13.9353 34.1808 14.2997 33.8519 14.6155C33.7286 14.7339 33.6097 14.857 33.4907 14.9802L33.4905 14.9803C33.3424 15.1337 33.1942 15.287 33.0376 15.4314C32.8181 15.6337 32.5469 15.7348 32.2406 15.7339C31.5627 15.7319 30.8849 15.7312 30.2072 15.7305H30.2071C29.7538 15.7301 29.3006 15.7296 28.8474 15.7288C28.6418 15.7285 28.5932 15.6506 28.6803 15.4645C28.8427 15.1171 29.079 14.8572 29.4725 14.7653C29.5962 14.7364 29.7162 14.6921 29.8362 14.6478C29.8971 14.6254 29.958 14.6029 30.0194 14.5824C30.1936 14.5242 30.2206 14.4414 30.0911 14.3139C30.0546 14.2781 30.0183 14.2421 29.9819 14.2062L29.9801 14.2044C29.7766 14.0031 29.5729 13.8017 29.3558 13.6159C28.4254 12.8186 27.3636 12.2463 26.227 11.8039C25.2921 11.4401 24.3271 11.1876 23.339 11.0206C22.2344 10.8341 21.1213 10.7593 20.0022 10.8021C19.75 10.8118 19.4983 10.8375 19.2465 10.8632C19.0919 10.879 18.9373 10.8947 18.7825 10.9068C18.6565 10.9167 18.6673 10.9921 18.6823 11.0744C18.7106 11.2304 18.7406 11.3861 18.7706 11.5419C18.8322 11.8612 18.8938 12.1804 18.9405 12.5019C19.0359 13.1609 19.1166 13.8227 19.1841 14.4852C19.21 14.7404 19.1941 15.0018 19.0712 15.2427C18.9791 15.4236 18.8463 15.5721 18.6494 15.6095C18.3427 15.6673 18.0293 15.7171 17.7181 15.7217C16.9168 15.7331 16.1152 15.7323 15.3136 15.7315C15.0732 15.7313 14.8329 15.731 14.5925 15.7311C14.2915 15.7313 14.233 15.6331 14.3883 15.3735C14.5805 15.0509 14.8497 14.8253 15.2217 14.7273C15.3422 14.6956 15.4595 14.651 15.5767 14.6064L15.5767 14.6064C15.626 14.5876 15.6752 14.5689 15.7247 14.5511C15.8075 14.5213 15.8429 14.4683 15.8182 14.3763C15.5352 13.3276 15.0983 12.3498 14.4568 11.4716C13.7267 10.4716 12.8087 9.6761 11.7449 9.04915C10.6723 8.41705 9.53464 7.94718 8.29843 7.75583C8.02261 7.71311 7.74239 7.70006 7.4622 7.687C7.33498 7.68107 7.20776 7.67514 7.08096 7.66644C6.96442 7.65837 6.8987 7.69809 6.88889 7.82865C6.87999 7.9448 6.85467 8.06255 6.81603 8.17238C6.79206 8.24035 6.74061 8.32949 6.68302 8.34641C6.62705 8.36288 6.53144 8.31652 6.48061 8.26873C6.03243 7.84873 5.54286 7.48969 4.9335 7.36236C4.7416 7.32228 4.53846 7.33283 4.33625 7.34334C4.26509 7.34704 4.19405 7.35073 4.12365 7.35221C3.98672 7.35493 3.84978 7.36093 3.71283 7.36692L3.71277 7.36692C3.53118 7.37487 3.34958 7.38282 3.16793 7.38316C2.98332 7.38361 2.8809 7.29052 2.83991 7.1315C2.80204 6.98351 2.85302 6.8734 3.02352 6.77582C3.12495 6.71773 3.22875 6.66362 3.33258 6.6095L3.33261 6.60949C3.41618 6.56592 3.49977 6.52235 3.58217 6.47668C3.66339 6.43127 3.74281 6.37932 3.81299 6.31853C3.83542 6.29911 3.8465 6.26638 3.85758 6.23366C3.86264 6.21872 3.8677 6.20378 3.87383 6.19011C3.85884 6.18708 3.8434 6.18229 3.82795 6.1775C3.79445 6.16711 3.7609 6.15671 3.7318 6.16411C3.65119 6.18487 3.5721 6.2118 3.49299 6.23874L3.49295 6.23876C3.44329 6.25567 3.39362 6.27258 3.34355 6.28797C3.29085 6.30416 3.2382 6.32067 3.18553 6.33718L3.1855 6.33719C3.01005 6.39221 2.83442 6.44729 2.65608 6.49051C2.54444 6.51769 2.42001 6.5246 2.30732 6.50535C2.20124 6.48717 2.08186 6.44463 2.00705 6.37271C1.86458 6.23571 1.74335 6.07438 1.62504 5.91463C1.5415 5.80179 1.58743 5.64986 1.71907 5.56138C1.82107 5.49306 1.92304 5.42471 2.02502 5.35636L2.02629 5.35551C2.60146 4.97001 3.17662 4.58451 3.75516 4.20397C3.90831 4.10308 4.00514 3.98372 4.01203 3.79649C4.0201 3.57016 4.16981 3.42577 4.33073 3.30456C4.71689 3.01422 5.10851 2.72952 5.50868 2.45902C5.63792 2.37147 5.77939 2.30223 5.92373 2.23158C5.98972 2.19928 6.05632 2.16668 6.12262 2.13191Z" fill="white"/>
<path d="M10.158 9.06305C10.1998 9.07941 10.2396 9.09414 10.2779 9.10829C10.3579 9.13786 10.4311 9.16495 10.5011 9.19924C11.7505 9.81051 12.8171 10.6541 13.7015 11.7279C13.7996 11.8474 13.8928 11.9719 13.9755 12.1025C14.0062 12.1511 14.027 12.2333 14.0076 12.2827C13.666 13.1472 13.3207 14.0102 12.8432 14.8124C12.6174 15.1917 12.3421 15.5104 11.9149 15.6766C11.7182 15.7533 11.5182 15.7505 11.3183 15.7477C11.2667 15.747 11.2151 15.7463 11.1636 15.747C10.5501 15.7543 9.93665 15.7574 9.3233 15.7606C9.07816 15.7618 8.83304 15.7631 8.58791 15.7646C8.54289 15.7648 8.49786 15.7652 8.45284 15.7656H8.45277C8.32888 15.7666 8.20504 15.7676 8.08137 15.7661C7.9041 15.7639 7.84728 15.6875 7.91227 15.5236C8.03057 15.2257 8.21293 14.9791 8.52784 14.8667C8.78319 14.7755 9.04158 14.6915 9.30181 14.6162C9.54856 14.5448 9.72132 14.3831 9.79468 14.1528C9.91528 13.7743 10.0296 13.3893 10.0936 12.9985C10.2609 11.9763 10.3151 10.9455 10.2404 9.91025C10.2299 9.76506 10.2112 9.62041 10.1925 9.47565L10.1925 9.47562C10.1823 9.39692 10.1721 9.31818 10.1632 9.23932C10.1591 9.2062 10.159 9.1728 10.1588 9.13094V9.13085C10.1587 9.11055 10.1586 9.08826 10.158 9.06305Z" fill="white"/>
<path d="M26.8621 13.2313C26.9297 13.1493 26.9978 13.0668 27.0665 12.984C27.0613 12.9772 27.0572 12.9712 27.0535 12.9659C27.0461 12.9551 27.0408 12.9473 27.0335 12.9428C27.0026 12.9217 26.9709 12.9015 26.938 12.8833C26.2419 12.5013 25.5011 12.2327 24.7344 12.041C24.3659 11.9488 23.9932 11.8736 23.6204 11.7984C23.4277 11.7595 23.235 11.7206 23.0429 11.6794C22.8768 11.6437 22.8666 11.6484 22.8493 11.8116C22.8392 11.9069 22.8293 12.0022 22.8194 12.0975C22.787 12.4083 22.7546 12.7189 22.7159 13.0288C22.6636 13.4444 22.5911 13.8593 22.3786 14.2271C22.3101 14.3454 22.1946 14.4578 22.0735 14.5189C21.8962 14.6084 21.6977 14.6692 21.5016 14.7078C21.0665 14.7928 20.7925 15.0642 20.5937 15.4366C20.5167 15.5802 20.5766 15.6993 20.7398 15.7187C20.8112 15.7269 20.8835 15.7264 20.9555 15.7259C20.968 15.7259 20.9804 15.7258 20.9929 15.7257C21.2742 15.7254 21.5556 15.7248 21.8369 15.7241C21.9778 15.7238 22.1187 15.7234 22.2597 15.7232C22.4265 15.7229 22.5933 15.7228 22.7601 15.7227C23.2593 15.7223 23.7583 15.7219 24.2575 15.7181C24.3246 15.7177 24.3925 15.6964 24.4587 15.6758C24.4687 15.6726 24.4787 15.6695 24.4887 15.6665C24.834 15.5615 25.0664 15.3058 25.2957 15.0536C25.3119 15.0358 25.328 15.0181 25.3442 15.0004C25.6452 14.6709 25.935 14.331 26.2247 13.9912C26.276 13.931 26.3273 13.8708 26.3787 13.8107C26.5412 13.6202 26.7007 13.4269 26.8621 13.2313Z" fill="white"/>
</g>
<defs>
<clipPath id="clip0_143_1544">
<rect width="34.3505" height="15.8298" fill="white" transform="translate(0.649414 0.085083)"/>
</clipPath>
</defs>
</svg>
